solid solidname
 facet normal 0 0 1
  outer loop
    vertex 29 21 16
    vertex 29 4.99998 16
    vertex 45 21 16
  endloop
 endfacet
 facet normal 0 -0 1
  outer loop
    vertex 29 4.99998 16
    vertex 45 5 16
    vertex 45 21 16
  endloop
 endfacet
 facet normal -1 1.43051e-006 0
  outer loop
    vertex 29 4.99998 12
    vertex 29 4.99998 16
    vertex 29 8.99998 12
  endloop
 endfacet
 facet normal -1 1.43051e-006 0
  outer loop
    vertex 29 4.99998 16
    vertex 29 21 16
    vertex 29 8.99998 12
  endloop
 endfacet
 facet normal -1 1.43051e-006 0
  outer loop
    vertex 29 8.99998 0
    vertex 29 8.99998 12
    vertex 29 21 0
  endloop
 endfacet
 facet normal -1 1.43051e-006 0
  outer loop
    vertex 29 8.99998 12
    vertex 29 21 16
    vertex 29 21 0
  endloop
 endfacet
 facet normal -1.43051e-006 1 0
  outer loop
    vertex 45 21 16
    vertex 45 21 0
    vertex 29 21 16
  endloop
 endfacet
 facet normal -1.43051e-006 1 0
  outer loop
    vertex 45 21 0
    vertex 29 21 0
    vertex 29 21 16
  endloop
 endfacet
 facet normal 0 0 -1
  outer loop
    vertex 29 21 0
    vertex 45 21 0
    vertex 29 8.99998 0
  endloop
 endfacet
 facet normal 0 0 -1
  outer loop
    vertex 45 21 0
    vertex 45 5 0
    vertex 29 8.99998 0
  endloop
 endfacet
 facet normal 0 0 -1
  outer loop
    vertex 45 5 0
    vertex 4.99993 4.99995 0
    vertex 29 8.99998 0
  endloop
 endfacet
 facet normal 0 -0 -1
  outer loop
    vertex 4.99993 4.99995 0
    vertex 4.99994 8.99995 0
    vertex 29 8.99998 0
  endloop
 endfacet
 facet normal 1.37091e-006 -1 0
  outer loop
    vertex 29 4.99998 16
    vertex 29 4.99998 12
    vertex 45 5 16
  endloop
 endfacet
 facet normal 1.39077e-006 -1 -3.97362e-008
  outer loop
    vertex 17 4.99996 12
    vertex 4.99993 4.99995 0
    vertex 29 4.99998 12
  endloop
 endfacet
 facet normal 1.35104e-006 -1 0
  outer loop
    vertex 17 4.99996 12
    vertex 17 4.99996 28
    vertex 4.99993 4.99995 0
  endloop
 endfacet
 facet normal 1.37942e-006 -1 0
  outer loop
    vertex 45 5 28
    vertex 45 5 40
    vertex 17 4.99996 28
  endloop
 endfacet
 facet normal 1.3709e-006 -1 1.98683e-008
  outer loop
    vertex 45 5 40
    vertex 4.99993 4.99995 40
    vertex 17 4.99996 28
  endloop
 endfacet
 facet normal 1.35104e-006 -1 0
  outer loop
    vertex 4.99993 4.99995 40
    vertex 4.99993 4.99995 0
    vertex 17 4.99996 28
  endloop
 endfacet
 facet normal 1.3709e-006 -1 -2.42532e-013
  outer loop
    vertex 4.99993 4.99995 0
    vertex 45 5 0
    vertex 29 4.99998 12
  endloop
 endfacet
 facet normal 1.37091e-006 -1 0
  outer loop
    vertex 45 5 0
    vertex 45 5 16
    vertex 29 4.99998 12
  endloop
 endfacet
 facet normal 1.35104e-006 -1 0
  outer loop
    vertex 17 15.4 0
    vertex 17 15.4 4
    vertex 4.99995 15.4 0
  endloop
 endfacet
 facet normal 1.35104e-006 -1 0
  outer loop
    vertex 17 15.4 4
    vertex 4.99995 15.4 4
    vertex 4.99995 15.4 0
  endloop
 endfacet
 facet normal 0 0 1
  outer loop
    vertex 17 15.4 4
    vertex 17 33 4
    vertex 4.99995 15.4 4
  endloop
 endfacet
 facet normal 0 0 1
  outer loop
    vertex 41 33 4
    vertex 41 45.0001 4
    vertex 17 33 4
  endloop
 endfacet
 facet normal -0 0 1
  outer loop
    vertex 41 45.0001 4
    vertex 4.99999 45 4
    vertex 17 33 4
  endloop
 endfacet
 facet normal 0 0 1
  outer loop
    vertex 4.99999 45 4
    vertex 4.99995 15.4 4
    vertex 17 33 4
  endloop
 endfacet
 facet normal 1 -1.40884e-006 0
  outer loop
    vertex 17 15.4 4
    vertex 17 15.4 0
    vertex 17 33 4
  endloop
 endfacet
 facet normal 1 -1.40884e-006 0
  outer loop
    vertex 17 15.4 0
    vertex 17 33 0
    vertex 17 33 4
  endloop
 endfacet
 facet normal 0 0 1
  outer loop
    vertex 17 8.99997 12
    vertex 17 4.99996 12
    vertex 29 8.99998 12
  endloop
 endfacet
 facet normal 0 -0 1
  outer loop
    vertex 17 4.99996 12
    vertex 29 4.99998 12
    vertex 29 8.99998 12
  endloop
 endfacet
 facet normal 1 -1.43051e-006 0
  outer loop
    vertex 17 8.99997 12
    vertex 17 8.99997 28
    vertex 17 4.99996 12
  endloop
 endfacet
 facet normal 1 -1.43051e-006 0
  outer loop
    vertex 17 8.99997 28
    vertex 17 4.99996 28
    vertex 17 4.99996 12
  endloop
 endfacet
 facet normal 0 0 -1
  outer loop
    vertex 17 8.99997 28
    vertex 41 9 28
    vertex 17 4.99996 28
  endloop
 endfacet
 facet normal 0 0 -1
  outer loop
    vertex 41 33 28
    vertex 45 33 28
    vertex 41 9 28
  endloop
 endfacet
 facet normal 0 0 -1
  outer loop
    vertex 45 33 28
    vertex 45 5 28
    vertex 41 9 28
  endloop
 endfacet
 facet normal 0 0 -1
  outer loop
    vertex 45 5 28
    vertex 17 4.99996 28
    vertex 41 9 28
  endloop
 endfacet
 facet normal 1.43051e-006 -1 0
  outer loop
    vertex 17 33 4
    vertex 17 33 0
    vertex 41 33 4
  endloop
 endfacet
 facet normal 1.36239e-006 -1 4.08718e-007
  outer loop
    vertex 17 33 0
    vertex 45 33 0
    vertex 41 33 4
  endloop
 endfacet
 facet normal 9.53672e-007 -1 0
  outer loop
    vertex 45 33 0
    vertex 45 33 28
    vertex 41 33 4
  endloop
 endfacet
 facet normal 9.53672e-007 -1 0
  outer loop
    vertex 45 33 28
    vertex 41 33 28
    vertex 41 33 4
  endloop
 endfacet
 facet normal 1 -1.43051e-006 0
  outer loop
    vertex 45 5 16
    vertex 45 5 0
    vertex 45 21 16
  endloop
 endfacet
 facet normal 1 -1.43051e-006 0
  outer loop
    vertex 45 5 0
    vertex 45 21 0
    vertex 45 21 16
  endloop
 endfacet
 facet normal -1 1.36929e-006 0
  outer loop
    vertex 4.99995 15.4 0
    vertex 4.99995 15.4 4
    vertex 4.99999 45 0
  endloop
 endfacet
 facet normal -1 1.36929e-006 0
  outer loop
    vertex 4.99995 15.4 4
    vertex 4.99999 45 4
    vertex 4.99999 45 0
  endloop
 endfacet
 facet normal -1 1.27156e-006 0
  outer loop
    vertex 41 33 4
    vertex 41 33 28
    vertex 41 45.0001 4
  endloop
 endfacet
 facet normal -1 1.27156e-006 0
  outer loop
    vertex 41 9 28
    vertex 41 9 40
    vertex 41 33 28
  endloop
 endfacet
 facet normal -1 1.27156e-006 -1.3474e-013
  outer loop
    vertex 41 9 40
    vertex 41 45.0001 40
    vertex 41 33 28
  endloop
 endfacet
 facet normal -1 1.27156e-006 0
  outer loop
    vertex 41 45.0001 40
    vertex 41 45.0001 4
    vertex 41 33 28
  endloop
 endfacet
 facet normal 0 0 -1
  outer loop
    vertex 17 15.4 0
    vertex 4.99995 15.4 0
    vertex 17 33 0
  endloop
 endfacet
 facet normal 0 -0 -1
  outer loop
    vertex 4.99995 15.4 0
    vertex 4.99999 45 0
    vertex 17 33 0
  endloop
 endfacet
 facet normal 0 0 -1
  outer loop
    vertex 4.99999 45 0
    vertex 45 45.0001 0
    vertex 17 33 0
  endloop
 endfacet
 facet normal -0 0 -1
  outer loop
    vertex 45 45.0001 0
    vertex 45 33 0
    vertex 17 33 0
  endloop
 endfacet
 facet normal 0 1 0
  outer loop
    vertex 41 45.0001 40
    vertex 45 45.0001 40
    vertex 41 45.0001 4
  endloop
 endfacet
 facet normal 0 1 -0
  outer loop
    vertex 45 45.0001 40
    vertex 45 45.0001 0
    vertex 41 45.0001 4
  endloop
 endfacet
 facet normal -1.33514e-006 1 -1.33514e-006
  outer loop
    vertex 45 45.0001 0
    vertex 4.99999 45 0
    vertex 41 45.0001 4
  endloop
 endfacet
 facet normal -1.48349e-006 1 0
  outer loop
    vertex 4.99999 45 0
    vertex 4.99999 45 4
    vertex 41 45.0001 4
  endloop
 endfacet
 facet normal -1.39077e-006 1 0
  outer loop
    vertex 41 9 28
    vertex 17 8.99997 28
    vertex 41 9 40
  endloop
 endfacet
 facet normal -1.37753e-006 1 -2.64911e-008
  outer loop
    vertex 41 9 40
    vertex 17 8.99997 28
    vertex 4.99994 8.99995 40
  endloop
 endfacet
 facet normal -1.43051e-006 1 0
  outer loop
    vertex 29 8.99998 12
    vertex 29 8.99998 0
    vertex 17 8.99997 12
  endloop
 endfacet
 facet normal -1.39077e-006 1 3.97365e-008
  outer loop
    vertex 29 8.99998 0
    vertex 4.99994 8.99995 0
    vertex 17 8.99997 12
  endloop
 endfacet
 facet normal -1.35104e-006 1 0
  outer loop
    vertex 4.99994 8.99995 0
    vertex 4.99994 8.99995 40
    vertex 17 8.99997 12
  endloop
 endfacet
 facet normal -1.35104e-006 1 0
  outer loop
    vertex 17 8.99997 12
    vertex 4.99994 8.99995 40
    vertex 17 8.99997 28
  endloop
 endfacet
 facet normal 0 0 1
  outer loop
    vertex 4.99994 8.99995 40
    vertex 4.99993 4.99995 40
    vertex 41 9 40
  endloop
 endfacet
 facet normal 0 0 1
  outer loop
    vertex 4.99993 4.99995 40
    vertex 45 5 40
    vertex 41 9 40
  endloop
 endfacet
 facet normal 0 0 1
  outer loop
    vertex 45 5 40
    vertex 45 45.0001 40
    vertex 41 9 40
  endloop
 endfacet
 facet normal -0 0 1
  outer loop
    vertex 45 45.0001 40
    vertex 41 45.0001 40
    vertex 41 9 40
  endloop
 endfacet
 facet normal -1 1.3113e-006 0
  outer loop
    vertex 4.99994 8.99995 40
    vertex 4.99994 8.99995 0
    vertex 4.99993 4.99995 40
  endloop
 endfacet
 facet normal -1 1.3113e-006 0
  outer loop
    vertex 4.99994 8.99995 0
    vertex 4.99993 4.99995 0
    vertex 4.99993 4.99995 40
  endloop
 endfacet
 facet normal 1 -1.27156e-006 0
  outer loop
    vertex 45 33 0
    vertex 45 45.0001 0
    vertex 45 33 28
  endloop
 endfacet
 facet normal 1 -1.27156e-006 0
  outer loop
    vertex 45 45.0001 0
    vertex 45 45.0001 40
    vertex 45 33 28
  endloop
 endfacet
 facet normal 1 -1.36239e-006 0
  outer loop
    vertex 45 5 28
    vertex 45 33 28
    vertex 45 5 40
  endloop
 endfacet
 facet normal 1 -1.33514e-006 6.35782e-008
  outer loop
    vertex 45 33 28
    vertex 45 45.0001 40
    vertex 45 5 40
  endloop
 endfacet
endsolid solidname
